<svg width="88" height="88" viewBox="0 0 88 88" fill="none" xmlns="http://www.w3.org/2000/svg">
<path d="M46.4299 62.6234H32.9844C32.2549 62.6234 31.6644 63.2148 31.6644 63.9434V78.7925H26.9617V63.9434C26.9617 63.2148 26.3712 62.6234 25.6417 62.6234H8.90938L21.9457 49.5853C22.3232 49.2078 22.4367 48.6402 22.2317 48.1465C22.0275 47.6528 21.5462 47.3316 21.012 47.3316H13.0445L26.3853 33.9908C26.5085 33.8685 26.6062 33.7207 26.6739 33.5579C26.6766 33.5517 26.6775 33.5447 26.6801 33.5376C26.7391 33.388 26.7734 33.2261 26.7743 33.0563C26.7743 32.8856 26.7391 32.7236 26.6801 32.574C26.6775 32.5679 26.6766 32.5608 26.6739 32.5547C26.5402 32.2291 26.2806 31.9695 25.955 31.8357C25.9488 31.8331 25.9418 31.8322 25.9356 31.8296C25.786 31.7706 25.6241 31.7354 25.4534 31.7354H17.7895L29.416 20.1097L36.2818 27.0424C36.7948 27.5589 37.6299 27.5642 38.1491 27.0512C38.6666 26.5381 38.671 25.7021 38.1579 25.1838L30.3585 17.3087C30.1112 17.0596 29.7751 16.9188 29.4239 16.918C29.0332 16.9206 28.7358 17.057 28.4876 17.3043L13.6693 32.1226C13.2918 32.5001 13.1783 33.0677 13.3833 33.5614C13.5875 34.0551 14.0688 34.3763 14.603 34.3763H22.2678L8.92522 47.7188C8.54682 48.0955 8.43418 48.664 8.63834 49.1568C8.8425 49.6504 9.32386 49.9716 9.85802 49.9716H17.8264L4.78922 63.0106C4.4117 63.3881 4.29818 63.9557 4.50322 64.4494C4.70738 64.9431 5.18874 65.2643 5.7229 65.2643H24.3217V80.1134C24.3217 80.842 24.9122 81.4334 25.6417 81.4334H32.9844C33.7139 81.4334 34.3044 80.842 34.3044 80.1134V65.2634H46.4299C47.1586 65.2634 47.7499 64.672 47.7499 63.9434C47.7499 63.2148 47.1586 62.6234 46.4299 62.6234Z" fill="currentColor"/>
<path d="M83.2154 53.4881L70.0286 40.1702H78.0692C78.6016 40.1702 79.082 39.8499 79.288 39.3588C79.4921 38.8669 79.3821 38.3002 79.0072 37.9218L65.5107 24.2932H73.2371C73.7695 24.2932 74.25 23.9729 74.4559 23.4819C74.66 22.9899 74.55 22.4232 74.1752 22.0448L59.2354 6.9581C58.989 6.70906 58.652 6.56826 58.3008 6.56738C58.2991 6.56738 58.2982 6.56738 58.2973 6.56738C57.948 6.56738 57.6118 6.70642 57.3636 6.9537L42.2796 22.0395C41.902 22.4171 41.7885 22.9847 41.9936 23.4783C42.1977 23.972 42.6791 24.2932 43.2132 24.2932H51.0734L37.4484 37.9165C37.0708 38.294 36.9573 38.8616 37.1624 39.3553C37.3665 39.8481 37.8479 40.1702 38.382 40.1702H46.5502L33.2384 53.4837C32.8609 53.8612 32.7474 54.4288 32.9524 54.9225C33.1566 55.4162 33.638 55.7374 34.1721 55.7374H53.1317V70.8778C53.1317 71.6064 53.7231 72.1978 54.4517 72.1978H61.9247C62.6533 72.1978 63.2447 71.6064 63.2447 70.8778V55.7374H82.2782C82.8106 55.7374 83.2911 55.4171 83.497 54.9251C83.7012 54.4332 83.5912 53.8674 83.2154 53.4881ZM61.9247 53.0974C61.196 53.0974 60.6047 53.6887 60.6047 54.4174V69.5578H55.7717V54.4174C55.7717 53.6887 55.1804 53.0974 54.4517 53.0974H37.3586L50.6695 39.7839C51.047 39.4063 51.1605 38.8387 50.9555 38.3451C50.7504 37.8514 50.27 37.5302 49.7358 37.5302H41.5676L55.1918 23.9078C55.3141 23.7855 55.4127 23.6385 55.4796 23.4757C55.4822 23.4687 55.4831 23.4616 55.4857 23.4555C55.5447 23.3059 55.579 23.1448 55.579 22.9741C55.579 22.8034 55.5438 22.6423 55.4848 22.4927C55.4822 22.4866 55.4813 22.4795 55.4787 22.4734C55.3449 22.1478 55.0853 21.8891 54.7597 21.7544C54.7536 21.7518 54.7465 21.7509 54.7395 21.7483C54.5899 21.6893 54.428 21.6541 54.2581 21.6541H46.398L58.292 9.75914L70.0708 21.6541H62.3524C61.6237 21.6541 61.0324 22.2446 61.0324 22.9741V22.975C61.0324 22.9759 61.0324 22.9767 61.0324 22.9776C61.0324 23.1387 61.0658 23.2918 61.1195 23.4343C61.1256 23.4519 61.1283 23.4695 61.1353 23.4863C61.1952 23.6288 61.2823 23.7555 61.3852 23.8673C61.3976 23.8805 61.4011 23.8981 61.4143 23.9113L74.9012 37.5311H66.8615C66.3291 37.5311 65.8486 37.8514 65.6427 38.3424C65.4385 38.8343 65.5485 39.4011 65.9234 39.7795L79.1102 53.0983H61.9247V53.0974Z" fill="currentColor"/>
</svg>
