<svg width="88" height="88" viewBox="0 0 88 88" fill="none" xmlns="http://www.w3.org/2000/svg">
<path d="M79.6844 19.1429C79.5308 19.0203 79.3516 18.934 79.16 18.8902C78.9684 18.8465 78.7694 18.8465 78.5779 18.8903L43.7264 26.7319C43.6479 26.7564 43.5721 26.7885 43.4998 26.8277H43.3953L9.41507 19.0384C9.2321 19.002 9.04346 19.0052 8.86182 19.0477C8.68018 19.0903 8.50976 19.1712 8.36202 19.2851C8.21427 19.399 8.09262 19.5433 8.00525 19.7081C7.91788 19.8729 7.86681 20.0546 7.85547 20.2408V65.4693C7.85622 65.7484 7.94627 66.0199 8.11246 66.244C8.27865 66.4682 8.51224 66.6334 8.77903 66.7152L42.707 77.2491C42.9506 77.3271 43.2126 77.3271 43.4563 77.2491C43.5987 77.3233 43.7545 77.3685 43.9145 77.3819C44.0746 77.3954 44.2357 77.3769 44.3885 77.3275L79.24 66.7675C79.5042 66.6885 79.7367 66.528 79.9042 66.3089C80.0716 66.0898 80.1655 65.8234 80.1723 65.5477V20.1624C80.1724 19.9668 80.1287 19.7736 80.0442 19.5972C79.9598 19.4207 79.8368 19.2655 79.6844 19.1429V19.1429ZM10.4693 21.8788L42.707 29.276V74.5132L10.4693 64.5109V21.8788ZM77.5584 64.5719L45.3208 74.3216V29.0146L77.5584 21.7917V64.5719Z" fill="currentColor"/>
<path d="M50.6655 42.8061C50.7893 42.8061 50.9126 42.7885 51.0314 42.7539L72.0469 36.7071C72.3663 36.6 72.6319 36.3737 72.7885 36.0754C72.945 35.7771 72.9803 35.4298 72.887 35.1061C72.7938 34.7824 72.5791 34.5073 72.2878 34.338C71.9965 34.1688 71.6511 34.1186 71.3237 34.1978L50.3083 40.2446C50.007 40.3324 49.7473 40.5258 49.5768 40.7893C49.4063 41.0528 49.3364 41.3689 49.3797 41.6798C49.4231 41.9906 49.5768 42.2755 49.8129 42.4823C50.049 42.6891 50.3517 42.8041 50.6655 42.8061V42.8061Z" fill="currentColor"/>
<path d="M50.6655 50.7007C50.7893 50.7007 50.9126 50.6831 51.0314 50.6484L72.0469 44.6017C72.3663 44.4945 72.6319 44.2682 72.7885 43.9699C72.945 43.6716 72.9803 43.3244 72.887 43.0007C72.7938 42.677 72.5791 42.4018 72.2878 42.2326C71.9965 42.0633 71.6511 42.0131 71.3237 42.0924L50.3083 48.1304C50.007 48.2182 49.7473 48.4116 49.5768 48.6751C49.4063 48.9386 49.3364 49.2547 49.3797 49.5656C49.4231 49.8764 49.5768 50.1613 49.8129 50.3681C50.049 50.5749 50.3517 50.6899 50.6655 50.692V50.7007Z" fill="currentColor"/>
<path d="M50.6655 58.5854C50.7893 58.5854 50.9126 58.5678 51.0314 58.5332L72.0469 52.4864C72.3663 52.3793 72.6319 52.153 72.7885 51.8547C72.945 51.5564 72.9803 51.2091 72.887 50.8854C72.7938 50.5617 72.5791 50.2866 72.2878 50.1173C71.9965 49.9481 71.6511 49.8979 71.3237 49.9771L50.3083 56.0239C50.007 56.1117 49.7473 56.3051 49.5768 56.5686C49.4063 56.8321 49.3364 57.1482 49.3797 57.459C49.4231 57.7699 49.5768 58.0548 49.8129 58.2616C50.049 58.4684 50.3517 58.5834 50.6655 58.5854V58.5854Z" fill="currentColor"/>
</svg>
