<svg width="88" height="88" viewBox="0 0 88 88" fill="none" xmlns="http://www.w3.org/2000/svg">
<path d="M75.5943 71.3989H42.2696C42.2522 71.398 42.2365 71.3936 42.219 71.3936C29.7907 71.3936 19.6779 61.2817 19.6779 48.8525C19.6779 42.8449 22.0912 37.081 26.3344 32.8623C27.7634 34.1751 29.5959 34.9114 31.5507 34.9341C31.5804 34.9341 31.6109 34.9341 31.6415 34.9341C33.2749 34.9341 34.8305 34.4301 36.1424 33.5069L42.6889 40.2106C42.9457 40.4735 43.2863 40.6054 43.6261 40.6054C43.9563 40.6054 44.2864 40.4814 44.5415 40.2325L45.8927 38.9135L49.5734 42.693C49.8154 42.9419 50.1473 43.0843 50.4949 43.0886C50.501 43.0886 50.5063 43.0886 50.5124 43.0886C50.8548 43.0886 51.1832 42.955 51.4278 42.7165L56.1295 38.1292C56.3776 37.8864 56.52 37.5545 56.5243 37.2068C56.5287 36.8592 56.3951 36.5247 56.1514 36.2757L52.4654 32.4998L53.5633 31.429C53.8114 31.1861 53.9538 30.8551 53.9581 30.5075C53.9625 30.1607 53.8289 29.8253 53.5852 29.5764L33.0355 8.521C32.9954 8.47995 32.9499 8.44676 32.9054 8.41182C32.8705 8.36466 32.853 8.30963 32.8102 8.26596C29.9217 5.33816 25.15 5.31981 22.1681 8.22927C19.2307 11.1108 19.111 15.8047 21.872 18.7552C21.934 18.9037 22.0187 19.0443 22.1384 19.1666L25.3134 22.4176C24.3377 23.7356 23.7927 25.3157 23.7744 26.984C23.7586 28.3352 24.0871 29.6358 24.7124 30.7922C19.8412 35.5193 17.0602 42.044 17.0602 48.8525C17.0602 58.7234 22.776 67.2797 31.0685 71.3989H13.9C13.1768 71.3989 12.5898 71.9849 12.5898 72.709V79.9779C12.5898 80.702 13.1768 81.2881 13.9 81.2881H75.5961C76.3193 81.2881 76.9063 80.702 76.9063 79.9779V72.709C76.9045 71.9858 76.3176 71.3989 75.5943 71.3989ZM53.3607 37.1684L50.536 39.925L47.768 37.0837L50.5892 34.3297L53.3607 37.1684ZM23.9997 10.1019C25.7047 8.43977 28.2997 8.23102 30.1802 9.47743L23.2363 16.2624C22.0327 14.3591 22.3 11.7694 23.9997 10.1019ZM32.0747 11.289L50.7945 30.4682L43.6479 37.4427L24.9273 18.2731L32.0747 11.289ZM34.2776 31.5984C33.474 32.0727 32.5569 32.326 31.5795 32.3138C30.1785 32.298 28.8683 31.7373 27.8866 30.7328C26.9065 29.7327 26.3764 28.4121 26.3921 27.0145C26.4034 26.0494 26.6803 25.1296 27.1764 24.3278L34.2776 31.5984ZM74.2842 78.6677H15.2084V74.0192H74.2842V78.6677Z" fill="currentColor"/>
<path d="M53.9897 61.2607C54.2482 61.5359 54.5967 61.6756 54.947 61.6756C55.2675 61.6756 55.5889 61.5586 55.8414 61.3227L75.2756 43.1445C75.8041 42.6501 75.832 41.8204 75.3376 41.2919C74.8424 40.7635 74.0135 40.7364 73.4859 41.2299L54.0517 59.4081C53.5232 59.9034 53.4962 60.7323 53.9897 61.2607Z" fill="currentColor"/>
</svg>
