<svg width="88" height="88" viewBox="0 0 88 88" fill="none" xmlns="http://www.w3.org/2000/svg">
<path d="M36.2654 42.1125V27.8245H41.7297C42.4538 27.8245 43.0399 27.2384 43.0399 26.5143C43.0399 25.7902 42.4538 25.2041 41.7297 25.2041H34.9552H21.4052H14.6289C13.9048 25.2041 13.3188 25.7902 13.3188 26.5143C13.3188 27.2384 13.9048 27.8245 14.6289 27.8245H20.095V42.1125L13.4236 57.3456C13.4227 57.3473 13.4218 57.35 13.4209 57.3517L8.1374 69.4168C8.0649 69.5819 8.02734 69.7618 8.02734 69.9426C8.02734 75.1903 11.84 79.4598 16.5261 79.4598H39.8317C44.5195 79.4598 48.3339 75.1903 48.3339 69.9426C48.3339 69.7618 48.2964 69.5827 48.2239 69.4168L36.2654 42.1125ZM22.6054 42.9117C22.6779 42.7466 22.7154 42.5667 22.7154 42.3859V27.8236H33.645V42.3859C33.645 42.5667 33.6826 42.7458 33.755 42.9117L39.7269 56.5481H16.6327L22.6054 42.9117ZM39.8317 76.8377H16.5261C13.3598 76.8377 10.7709 73.8863 10.6521 70.2055L15.4858 59.1676H40.8755L45.7092 70.2055C45.5895 73.8863 42.9989 76.8377 39.8317 76.8377Z" fill="currentColor"/>
<path d="M78.6746 7.8877H57.2242C56.5002 7.8877 55.9141 8.47379 55.9141 9.19788C55.9141 9.92198 56.5002 10.5081 57.2242 10.5081H59.58V70.091C59.58 75.2558 63.335 79.458 67.9503 79.458C72.5648 79.458 76.3198 75.2558 76.3198 70.091V10.5081H78.6755C79.3996 10.5081 79.9857 9.92198 79.9857 9.19788C79.9857 8.47379 79.3978 7.8877 78.6746 7.8877ZM73.6985 70.0919C73.6985 73.8119 71.1192 76.8385 67.9494 76.8385C64.7797 76.8385 62.1995 73.8119 62.1995 70.0919V49.8215H67.6437C68.3678 49.8215 68.9539 49.2354 68.9539 48.5113C68.9539 47.7873 68.3678 47.2012 67.6437 47.2012H62.1995V40.079H67.6437C68.3678 40.079 68.9539 39.4929 68.9539 38.7688C68.9539 38.0447 68.3678 37.4586 67.6437 37.4586H62.1995V30.3373H67.6437C68.3678 30.3373 68.9539 29.7512 68.9539 29.0271C68.9539 28.303 68.3678 27.7169 67.6437 27.7169H62.1995V20.5983H67.6437C68.3678 20.5983 68.9539 20.0122 68.9539 19.2881C68.9539 18.564 68.3678 17.9779 67.6437 17.9779H62.1995V10.5081H73.6977L73.6985 70.0919Z" fill="currentColor"/>
</svg>
