<svg width="88" height="88" viewBox="0 0 88 88" fill="none" xmlns="http://www.w3.org/2000/svg">
<path d="M71.481 14.96H16.5162C13.2514 14.96 10.6378 17.0984 10.5586 19.8704V60.1216C10.5586 62.876 13.1986 65.12 16.5162 65.12H42.2386V74.8H26.8386C26.4885 74.8 26.1528 74.939 25.9052 75.1866C25.6577 75.4341 25.5186 75.7699 25.5186 76.12C25.5186 76.4701 25.6577 76.8058 25.9052 77.0533C26.1528 77.3009 26.4885 77.44 26.8386 77.44H61.1586C61.5087 77.44 61.8444 77.3009 62.092 77.0533C62.3395 76.8058 62.4786 76.4701 62.4786 76.12C62.4786 75.7699 62.3395 75.4341 62.092 75.1866C61.8444 74.939 61.5087 74.8 61.1586 74.8H44.8786V65.12H71.481C74.7986 65.12 77.4386 62.876 77.4386 60.1216V19.9584C77.4386 17.204 74.7986 14.96 71.481 14.96ZM74.7986 60.1216C74.7986 61.3976 73.2762 62.48 71.481 62.48H16.5162C14.7562 62.48 13.1986 61.3976 13.1986 60.1216V19.9056C13.1986 18.6384 14.721 17.6 16.5162 17.6H71.481C73.241 17.6 74.7986 18.6824 74.7986 19.9584V60.1216Z" fill="currentColor"/>
<path d="M48.6371 32.2344C48.3273 32.08 47.9693 32.0533 47.6401 32.1603C47.3109 32.2673 47.0369 32.4993 46.8771 32.8064L39.7667 46.64C39.6876 46.7943 39.6396 46.9626 39.6255 47.1355C39.6114 47.3083 39.6315 47.4822 39.6846 47.6473C39.7377 47.8123 39.8228 47.9653 39.935 48.0975C40.0473 48.2297 40.1844 48.3385 40.3387 48.4176C40.493 48.4968 40.6614 48.5448 40.8342 48.5589C41.007 48.573 41.1809 48.5529 41.346 48.4998C41.511 48.4467 41.664 48.3615 41.7962 48.2493C41.9284 48.1371 42.0372 47.9999 42.1163 47.8456L49.2091 33.9856C49.3609 33.6768 49.386 33.3208 49.2791 32.9937C49.1723 32.6666 48.9419 32.3942 48.6371 32.2344Z" fill="currentColor"/>
<path d="M57.0787 31.7508C56.8285 31.5176 56.4975 31.3907 56.1555 31.3967C55.8136 31.4027 55.4873 31.5413 55.2454 31.7831C55.0036 32.025 54.8651 32.3512 54.859 32.6932C54.853 33.0352 54.9799 33.3661 55.2131 33.6164L61.7955 40.19L55.2131 46.7636C55.0834 46.8844 54.9794 47.0301 54.9072 47.192C54.8351 47.354 54.7963 47.5288 54.7932 47.706C54.79 47.8832 54.8226 48.0593 54.889 48.2236C54.9554 48.388 55.0542 48.5373 55.1796 48.6627C55.3049 48.788 55.4542 48.8868 55.6186 48.9532C55.783 49.0196 55.959 49.0522 56.1363 49.0491C56.3135 49.046 56.4883 49.0072 56.6502 48.935C56.8121 48.8629 56.9578 48.7588 57.0787 48.6292L64.5939 41.1228C64.8411 40.8753 64.9799 40.5398 64.9799 40.19C64.9799 39.8402 64.8411 39.5047 64.5939 39.2572L57.0787 31.7508Z" fill="currentColor"/>
<path d="M33.7903 31.7503C33.5428 31.5031 33.2073 31.3643 32.8575 31.3643C32.5077 31.3643 32.1722 31.5031 31.9247 31.7503L24.4095 39.2655C24.1623 39.513 24.0234 39.8485 24.0234 40.1983C24.0234 40.5481 24.1623 40.8836 24.4095 41.1311L31.9247 48.6463C32.1749 48.8795 32.5059 49.0064 32.8478 49.0004C33.1898 48.9943 33.5161 48.8558 33.7579 48.614C33.9998 48.3721 34.1383 48.0458 34.1443 47.7039C34.1504 47.3619 34.0234 47.0309 33.7903 46.7807L27.2079 40.2071L33.7903 33.6159C34.0375 33.3684 34.1763 33.0329 34.1763 32.6831C34.1763 32.3333 34.0375 31.9978 33.7903 31.7503Z" fill="currentColor"/>
</svg>
