<svg width="18" height="18" viewBox="0 0 18 18" fill="none" xmlns="http://www.w3.org/2000/svg">
<path d="M16.0335 4.57618L9.2835 0.638678C9.19746 0.588469 9.09962 0.562012 9 0.562012C8.90038 0.562012 8.80254 0.588469 8.7165 0.638678L1.9665 4.57618C1.88158 4.62573 1.81112 4.69669 1.76217 4.78196C1.71322 4.86724 1.68747 4.96385 1.6875 5.06218V12.9372C1.68747 13.0355 1.71322 13.1321 1.76217 13.2174C1.81112 13.3027 1.88158 13.3736 1.9665 13.4232L8.7165 17.3607C8.80254 17.4109 8.90038 17.4373 9 17.4373C9.09962 17.4373 9.19746 17.4109 9.2835 17.3607L16.0335 13.4232C16.1184 13.3736 16.1889 13.3027 16.2378 13.2174C16.2868 13.1321 16.3125 13.0355 16.3125 12.9372V5.06218C16.3125 4.96385 16.2868 4.86724 16.2378 4.78196C16.1889 4.69669 16.1184 4.62573 16.0335 4.57618ZM9 1.77605L14.634 5.06218L9 8.3483L3.366 5.06218L9 1.77605ZM2.8125 6.04093L8.4375 9.32199V15.8959L2.8125 12.6143V6.04093ZM9.5625 15.8959V9.32255L15.1875 6.04149V12.6143L9.5625 15.8959Z" fill="#8892A4"/>
</svg>
