<svg width="88" height="88" viewBox="0 0 112 112" fill="none" xmlns="http://www.w3.org/2000/svg">
<circle cx="56" cy="56" r="56" fill="#E9EDF3"/>
<path d="M57.2451 34.8442C59.0911 34.8442 60.8956 35.3916 62.4305 36.4171C63.9653 37.4427 65.1616 38.9003 65.868 40.6058C66.5744 42.3112 66.7593 44.1879 66.3991 45.9983C66.039 47.8088 65.1501 49.4719 63.8448 50.7772C62.5395 52.0825 60.8765 52.9714 59.066 53.3315C57.2555 53.6916 55.3789 53.5068 53.6734 52.8004C51.968 52.094 50.5103 50.8977 49.4848 49.3628C48.4592 47.828 47.9118 46.0235 47.9118 44.1775C47.9118 41.7022 48.8951 39.3282 50.6455 37.5778C52.3958 35.8275 54.7698 34.8442 57.2451 34.8442V34.8442ZM57.2451 31.1108C54.6608 31.1108 52.1345 31.8772 49.9857 33.313C47.8369 34.7488 46.1621 36.7895 45.1731 39.1771C44.1841 41.5647 43.9254 44.192 44.4295 46.7267C44.9337 49.2614 46.1782 51.5896 48.0056 53.417C49.833 55.2444 52.1613 56.4889 54.696 56.9931C57.2306 57.4973 59.8579 57.2385 62.2455 56.2495C64.6332 55.2605 66.6739 53.5858 68.1097 51.437C69.5455 49.2882 70.3118 46.7618 70.3118 44.1775C70.3118 40.712 68.9351 37.3885 66.4847 34.938C64.0342 32.4875 60.7106 31.1108 57.2451 31.1108V31.1108Z" fill="#ACB5C3"/>
<path d="M75.9122 83.3775H72.1789V74.0442C72.1789 72.8185 71.9374 71.6049 71.4684 70.4725C70.9994 69.3401 70.3119 68.3112 69.4452 67.4445C68.5785 66.5779 67.5496 65.8904 66.4172 65.4213C65.2849 64.9523 64.0712 64.7109 62.8455 64.7109H51.6455C49.1702 64.7109 46.7962 65.6942 45.0459 67.4445C43.2955 69.1949 42.3122 71.5689 42.3122 74.0442V83.3775H38.5789V74.0442C38.5789 70.5787 39.9555 67.2552 42.406 64.8047C44.8565 62.3542 48.18 60.9775 51.6455 60.9775H62.8455C66.311 60.9775 69.6346 62.3542 72.0851 64.8047C74.5355 67.2552 75.9122 70.5787 75.9122 74.0442V83.3775Z" fill="#ACB5C3"/>
</svg>
