<svg width="88" height="88" viewBox="0 0 88 88" fill="none" xmlns="http://www.w3.org/2000/svg">
<path d="M67.4444 0.0902271C66.9271 -0.114092 66.3273 0.0367359 65.9607 0.460281C65.9432 0.479573 64.1788 2.46839 57.0461 6.24347C49.8073 10.0782 29.5604 22.5592 28.6335 23.1335C22.1269 27.7329 18.6447 35.4374 19.547 43.2418C20.2056 48.9198 23.0266 53.8217 27.0788 57.2513L21.3912 65.5933C20.9817 66.1939 21.1369 67.0112 21.7367 67.4207C21.9638 67.5759 22.2216 67.6496 22.4768 67.6496C22.8968 67.6496 23.3098 67.4488 23.565 67.0752L29.1912 58.8244C32.6296 61.0851 36.7124 62.4004 41.0373 62.4004C41.866 62.4004 42.7026 62.3531 43.5453 62.2558C51.1866 61.371 57.8002 56.3928 60.872 49.2364C60.9378 49.1671 61.0062 49.082 61.0597 48.9847C64.8672 42.8025 67.3524 26.051 67.5216 21.3727C67.6698 16.9154 68.2775 1.51344 68.2836 1.35823C68.3047 0.799643 67.9644 0.2963 67.4444 0.0902271ZM22.1602 42.9402C21.3684 36.0924 24.4305 29.3271 30.083 25.3284C30.2926 25.1995 51.1138 12.3634 58.2773 8.56902C59.4892 7.92712 60.5467 7.33697 61.485 6.79066L28.5607 55.0783C25.1119 52.074 22.7267 47.8289 22.1602 42.9402ZM58.8955 47.4764C58.8473 47.522 58.7929 47.579 58.7376 47.6483C58.6614 47.7439 58.5991 47.85 58.5517 47.964C55.8956 54.3803 50.0291 58.856 43.241 59.6408C38.6548 60.1722 34.2545 59.0156 30.6618 56.6655L65.4837 5.59631C65.2899 10.5421 64.99 18.3184 64.8918 21.2806C64.7041 26.4167 62.2023 41.8572 58.8955 47.4764Z" fill="currentColor"/>
</svg>
