<svg width="88" height="88" viewBox="0 0 88 88" fill="none" xmlns="http://www.w3.org/2000/svg">
<path d="M77.4383 68.1998H73.4783V14.0798C73.4783 13.7297 73.3392 13.3939 73.0917 13.1464C72.8441 12.8988 72.5084 12.7598 72.1583 12.7598H59.8383C59.4882 12.7598 59.1524 12.8988 58.9049 13.1464C58.6573 13.3939 58.5183 13.7297 58.5183 14.0798V68.1998H51.4783V34.3198C51.4783 33.9697 51.3392 33.6339 51.0917 33.3864C50.8441 33.1388 50.5084 32.9998 50.1583 32.9998H37.8383C37.4882 32.9998 37.1524 33.1388 36.9049 33.3864C36.6573 33.6339 36.5183 33.9697 36.5183 34.3198V68.1998H29.4783V53.6798C29.4783 53.3297 29.3392 52.9939 29.0917 52.7464C28.8441 52.4988 28.5084 52.3598 28.1583 52.3598H15.8383C15.4882 52.3598 15.1524 52.4988 14.9049 52.7464C14.6574 52.9939 14.5183 53.3297 14.5183 53.6798V68.1998H10.5583C10.2082 68.1998 9.87245 68.3388 9.6249 68.5864C9.37735 68.8339 9.23828 69.1697 9.23828 69.5198C9.23828 69.8699 9.37735 70.2056 9.6249 70.4532C9.87245 70.7007 10.2082 70.8398 10.5583 70.8398H77.4383C77.7884 70.8398 78.1241 70.7007 78.3717 70.4532C78.6192 70.2056 78.7583 69.8699 78.7583 69.5198C78.7583 69.1697 78.6192 68.8339 78.3717 68.5864C78.1241 68.3388 77.7884 68.1998 77.4383 68.1998ZM61.1583 15.3998H70.8383V68.1998H61.1583V15.3998ZM39.1583 35.6398H48.8383V68.1998H39.1583V35.6398ZM17.1583 54.9998H26.8383V68.1998H17.1583V54.9998Z" fill="currentColor"/>
<path d="M11.4399 43.5602C11.7899 43.5599 12.1254 43.4206 12.3727 43.173L48.8399 6.70579V12.3202C48.8399 12.6703 48.979 13.006 49.2266 13.2536C49.4741 13.5011 49.8098 13.6402 50.1599 13.6402C50.51 13.6402 50.8458 13.5011 51.0933 13.2536C51.3409 13.006 51.4799 12.6703 51.4799 12.3202V3.5202C51.4786 3.35419 51.4458 3.18995 51.3831 3.0362C51.3168 2.87405 51.2188 2.72673 51.0949 2.60284C50.971 2.47895 50.8237 2.38097 50.6615 2.3146C50.5035 2.24371 50.333 2.20483 50.1599 2.2002H41.3599C41.0098 2.2002 40.6741 2.33927 40.4266 2.58681C40.179 2.83436 40.0399 3.17011 40.0399 3.5202C40.0399 3.87028 40.179 4.20603 40.4266 4.45358C40.6741 4.70112 41.0098 4.8402 41.3599 4.8402H46.9743L10.5071 41.3074C10.3228 41.492 10.1972 41.7271 10.1464 41.983C10.0956 42.2389 10.1217 42.5041 10.2215 42.7452C10.3213 42.9862 10.4903 43.1923 10.7072 43.3374C10.924 43.4824 11.179 43.56 11.4399 43.5602Z" fill="currentColor"/>
</svg>
