<svg width="88" height="88" viewBox="0 0 88 88" fill="none" xmlns="http://www.w3.org/2000/svg">
<path d="M81.6542 19.276L68.0677 5.68954C67.5558 5.1777 66.7269 5.1777 66.2151 5.68954L42.0424 29.8614L27.4497 15.5036C27.4383 15.4923 27.4235 15.4844 27.4113 15.4739C27.3632 15.4302 27.3117 15.3909 27.2566 15.3543C27.2304 15.3368 27.206 15.3176 27.1789 15.3019C27.1143 15.2652 27.0453 15.2363 26.9736 15.2101C26.9553 15.204 26.9396 15.1927 26.9212 15.1866L7.15684 9.01127C6.69391 8.86715 6.18469 8.99118 5.83968 9.33532C5.49466 9.68033 5.36976 10.1878 5.51563 10.6525L11.6918 30.416C11.7293 30.5357 11.787 30.6457 11.856 30.7488C11.8778 30.782 11.904 30.8091 11.9285 30.8396C11.9608 30.8798 11.987 30.9235 12.0237 30.9593L26.6016 45.3022L5.68857 66.2161C5.17673 66.7279 5.17673 67.5568 5.68857 68.0687L19.2759 81.6569C19.5214 81.9023 19.855 82.0403 20.2027 82.0403C20.5503 82.0403 20.8831 81.9023 21.1294 81.6569L42.2581 60.5282L59.3533 77.142C59.5716 77.3525 59.8459 77.4547 60.1263 77.4853C62.109 79.3239 64.6665 80.3415 67.3864 80.3415C70.2443 80.3415 72.9319 79.2287 74.9522 77.2076C79.0688 73.091 79.1151 66.4309 75.1068 62.2471C75.043 62.0296 74.9295 61.8287 74.7635 61.6689L57.6186 45.1668L81.6551 21.1295C82.166 20.6168 82.166 19.7879 81.6542 19.276ZM24.9106 17.3047L23.9314 20.6325L19.3668 21.975C18.9397 22.1008 18.6051 22.4344 18.4794 22.8624L17.1377 27.4262L13.809 28.4053L8.76311 12.2588L24.9106 17.3047ZM20.2018 78.8776L8.46701 67.1419L13.4037 62.2052L19.2707 68.0721C19.5266 68.3281 19.862 68.4556 20.1974 68.4556C20.5328 68.4556 20.8682 68.3281 21.1242 68.0721C21.636 67.5603 21.636 66.7314 21.1242 66.2196L15.2572 60.3526L20.0647 55.5451L25.9316 61.4121C26.1875 61.668 26.523 61.7955 26.8584 61.7955C27.1938 61.7955 27.5292 61.668 27.7851 61.4121C28.2969 60.9003 28.2969 60.0714 27.7851 59.5595L21.9181 53.6926L28.4769 47.1338L40.3793 58.7018L20.2018 78.8776ZM73.097 75.3541C70.1648 78.2845 65.5259 78.4845 62.3571 75.9611L73.7049 64.6133C76.2283 67.783 76.0283 72.4237 73.097 75.3541ZM60.2521 74.3619L29.2953 44.2759L15.4494 30.6536L18.5632 29.7382C18.9903 29.6124 19.3249 29.2788 19.4506 28.8508L20.7931 24.287L25.3578 22.9445C25.7849 22.8188 26.1194 22.4851 26.2452 22.0571L27.1728 18.9048L54.814 46.1005L71.9851 62.6297L60.2521 74.3619ZM55.7398 43.3396L43.9098 31.6991L50.6345 24.9744L56.5015 30.8414C56.7574 31.0973 57.0928 31.2248 57.4282 31.2248C57.7636 31.2248 58.099 31.0973 58.3549 30.8414C58.8668 30.3304 58.8668 29.4998 58.3549 28.9888L52.488 23.1218L57.9505 17.6593L63.8175 23.5262C64.0734 23.7822 64.4088 23.9097 64.7442 23.9097C65.0796 23.9097 65.415 23.7822 65.6709 23.5262C66.1828 23.0153 66.1828 22.1846 65.6709 21.6737L59.804 15.8067L67.1427 8.46799L78.8757 20.2028L55.7398 43.3396Z" fill="currentColor"/>
</svg>
