<svg width="88" height="88" viewBox="0 0 88 88" fill="none" xmlns="http://www.w3.org/2000/svg">
<path d="M78.7084 60.4283C78.5489 55.8937 77.1365 50.4296 74.731 45.0431C69.4439 33.2002 61.5467 26.0112 56.3648 28.3282L53.3529 29.6721V22.5274C53.3529 16.8519 43.573 12.5713 30.6042 12.5713C17.6353 12.5713 7.85547 16.8519 7.85547 22.5274V35.32C7.85547 35.3877 7.86466 35.4528 7.87551 35.518C7.86549 35.5831 7.85547 35.6483 7.85547 35.7159C7.85547 35.8312 7.86633 35.9456 7.87384 36.0592C7.86466 36.1193 7.85547 36.1803 7.85547 36.243V49.0356C7.85547 49.1032 7.86466 49.1684 7.87551 49.2335C7.86549 49.2987 7.85547 49.3638 7.85547 49.4315C7.85547 49.576 7.86633 49.7188 7.87886 49.8608C7.86466 49.9351 7.85547 50.012 7.85547 50.0905V62.8814C7.85547 62.9491 7.86466 63.0142 7.87551 63.0794C7.86549 63.1445 7.85547 63.2097 7.85547 63.2773C7.85547 68.9536 17.6353 73.2343 30.6042 73.2343C38.8238 73.2343 46.3176 71.3625 50.2775 68.3999C53.8115 72.9812 57.6135 75.6799 60.7966 75.6799C61.5241 75.6799 62.2199 75.5395 62.8714 75.248L74.9131 69.8716C77.5341 68.7056 78.8822 65.3504 78.7084 60.4283ZM30.6042 15.0779C42.534 15.0779 50.8472 19.0043 50.8472 22.5282C50.8472 26.053 42.5332 29.9803 30.6042 29.9803C18.6752 29.9803 10.3612 26.053 10.3612 22.5282C10.3612 19.0043 18.6744 15.0779 30.6042 15.0779ZM10.3612 35.3208V27.214C14.0672 30.4013 21.5577 32.486 30.6042 32.486C39.6516 32.486 47.142 30.4013 50.8472 27.214V30.7913L44.3189 33.7046C41.809 34.8272 40.5378 37.9151 40.491 42.1448C37.4691 42.8038 34.0872 43.168 30.6034 43.168C18.6736 43.168 10.3604 39.2415 10.3604 35.7176C10.3604 35.6499 10.3512 35.5848 10.3403 35.5196C10.3512 35.4536 10.3612 35.3885 10.3612 35.3208ZM10.3612 49.0372V40.4025C14.0672 43.5889 21.5577 45.6737 30.6042 45.6737C34.0955 45.6737 37.5175 45.3388 40.6012 44.7023C40.8852 47.8011 41.7163 51.3383 43.0944 55.0744C39.3926 56.2713 35.2014 56.8835 30.6042 56.8835C18.6744 56.8835 10.3612 52.957 10.3612 49.4331C10.3612 49.3655 10.352 49.3003 10.3412 49.2352C10.3512 49.17 10.3612 49.1049 10.3612 49.0372ZM30.6042 70.731C18.6744 70.731 10.3612 66.8037 10.3612 63.2798C10.3612 63.2122 10.352 63.147 10.3412 63.0819C10.3512 63.0167 10.3612 62.9516 10.3612 62.8839V54.118C14.0672 57.3045 21.5577 59.3893 30.6042 59.3893C35.5255 59.3893 40.0258 58.7177 44.0149 57.4072C44.1727 57.7831 44.3365 58.1598 44.5052 58.5373C45.8107 61.4615 47.2782 64.0883 48.8217 66.3719C45.3671 69.0038 38.2534 70.731 30.6042 70.731ZM61.8507 72.9628C58.6317 74.3994 51.6574 68.4091 46.7937 57.5158C41.9301 46.6225 42.1256 37.4298 45.3396 35.9932L53.1232 32.5194C52.6922 33.9753 52.4993 35.7385 52.5711 37.7748C52.7307 42.3102 54.1431 47.7743 56.5486 53.1617C60.2395 61.4281 65.1992 67.4126 69.6226 69.494L61.8507 72.9628ZM73.8924 67.5872C70.6759 69.0205 63.6999 63.0334 58.8363 52.1402C56.5594 47.0402 55.2239 41.9067 55.0752 37.6863C54.9424 33.9084 55.7851 31.3317 57.3871 30.6159C57.7037 30.4748 58.0562 30.4054 58.4404 30.4054C61.9576 30.4054 68.0599 36.2421 72.4449 46.0646C74.7218 51.1638 76.0574 56.2963 76.206 60.5168C76.3372 64.2946 75.4944 66.8714 73.8924 67.5872Z" fill="currentColor"/>
</svg>
