<svg width="88" height="88" viewBox="0 0 88 88" fill="none" xmlns="http://www.w3.org/2000/svg">
<path d="M74.1446 63.3428C77.9783 57.6794 80.1565 50.8834 80.1565 43.5646C80.1565 23.8735 64.1248 7.8418 44.4337 7.8418C24.7426 7.8418 8.71094 23.8735 8.71094 43.5646C8.71094 63.2557 24.7426 79.2873 44.4337 79.2873C56.4575 79.2873 67.0872 73.2755 73.6218 64.1269C73.709 64.0398 73.709 64.0398 73.7961 63.9527C73.8832 63.8656 74.0575 63.6042 74.1446 63.3428ZM77.5426 43.5646C77.5426 47.224 76.9327 50.7091 75.8872 53.9329C75.9743 50.622 75.4515 47.3111 73.9703 45.4814C72.402 43.5646 70.3981 43.6517 68.8298 43.826C66.6515 44.0002 64.5604 44.1745 62.1208 39.0339C60.204 34.9388 62.0337 33.3705 65.1703 31.2794C67.4357 29.7982 70.3981 27.7071 68.307 23.9606C66.3901 20.5626 63.5149 20.6497 61.1624 20.6497C59.6812 20.6497 58.2872 20.6497 57.0674 19.8656C55.1505 18.6458 53.6694 16.0319 52.1882 13.5923C51.6654 12.721 51.1426 11.8497 50.707 11.0656C66.0416 14.1151 77.5426 27.5329 77.5426 43.5646ZM35.1981 11.7626L35.2852 11.8497C37.2892 13.5052 42.2555 18.6458 41.7327 23.0022C41.5585 24.4834 38.5961 25.7032 36.0694 26.923C32.4971 28.4913 28.402 30.321 27.6179 33.8933C27.0951 36.2458 28.1406 38.8596 30.9288 41.9963C37.202 49.1408 42.4297 50.7091 46.2634 51.9289C49.1387 52.8002 51.0555 53.4101 52.3624 55.9368C54.0179 58.9864 52.7981 60.2062 49.4872 63.0814C46.4377 65.7824 42.2555 69.4418 41.7327 76.6735C39.5545 76.4992 37.4634 76.1507 35.3723 75.5408C35.7208 65.0854 31.2773 61.6873 27.9664 59.1606C26.9208 58.3765 25.9624 57.5923 25.4397 56.8081C25.004 56.1111 25.9624 54.4557 26.8337 52.9745C28.1406 50.7091 29.6218 48.0953 28.6634 45.5685C27.9664 43.7388 26.2238 42.4319 23.2614 41.3864C13.3288 38.0755 14.6357 29.1883 14.7228 28.8398C14.7228 28.8398 14.7228 28.8398 14.7228 28.7527C18.9921 20.5626 26.3109 14.3765 35.1981 11.7626ZM11.3248 43.5646C11.3248 40.2537 11.8476 37.0299 12.7189 34.0675C13.6773 37.5527 16.204 41.7349 22.5644 43.826C24.7426 44.523 26.0496 45.3943 26.3981 46.4398C26.9208 47.8339 25.7882 49.7507 24.7426 51.6675C23.4357 53.8458 22.1288 56.1982 23.3486 58.2022C24.0456 59.422 25.2654 60.2933 26.4852 61.2517C29.3604 63.4299 32.9327 66.1309 32.8456 74.6695C20.2991 69.8774 11.3248 57.7666 11.3248 43.5646ZM44.4337 76.6735C44.8694 70.5745 48.2674 67.6121 51.2298 64.9111C54.1921 62.2972 57.3288 59.5091 54.6278 54.5428C52.7109 51.0576 50.0971 50.2735 46.9604 49.3151C43.301 48.1824 38.6832 46.7012 32.8456 40.1665C30.7545 37.8141 29.7961 35.8101 30.1446 34.3289C30.6674 32.0636 34.0654 30.5824 37.1149 29.1883C40.6 27.62 43.9981 26.1388 44.3466 23.2636C44.9565 18.2101 40.5129 13.1566 38.2476 10.9784C40.2515 10.6299 42.3426 10.3685 44.4337 10.3685C45.3921 10.3685 46.3505 10.4557 47.2218 10.4557C47.309 10.5428 47.309 10.6299 47.3961 10.6299C48.2674 11.5883 49.2258 13.1566 50.1842 14.725C51.6654 17.3388 53.408 20.3012 55.8476 21.8695C57.6773 23.0893 59.5941 23.0893 61.3367 23.0022C63.7763 23.0022 65.0832 23.0893 66.1288 25.0062C67 26.4873 66.3901 27.0972 63.7763 28.9269C60.9882 30.7566 56.8931 33.6319 59.7684 39.9923C62.905 46.7883 66.3901 46.5269 69.004 46.2656C70.4852 46.1784 71.1822 46.0913 71.8793 46.9626C74.1446 49.925 73.1862 59.2477 72.0535 61.8616C66.1288 70.7487 55.9347 76.6735 44.4337 76.6735Z" fill="currentColor"/>
</svg>
