<svg width="88" height="88" viewBox="0 0 88 88" fill="none" xmlns="http://www.w3.org/2000/svg">
<path d="M43.0607 44.2285C32.3914 44.2285 23.7109 52.9081 23.7109 63.5774C23.7109 64.3035 24.2993 64.8928 25.0263 64.8928H61.0943C61.8203 64.8928 62.4096 64.3035 62.4096 63.5774C62.4096 52.9081 53.7291 44.2285 43.0607 44.2285ZM26.3934 62.2621C27.0669 53.6561 34.2855 46.8592 43.0607 46.8592C51.8359 46.8592 59.0546 53.6561 59.7272 62.2621H26.3934Z" fill="currentColor"/>
<path d="M42.7461 42.4913C49.0099 42.4913 54.1056 37.3956 54.1056 31.1319C54.1056 24.8682 49.009 19.7725 42.7461 19.7725C36.4824 19.7725 31.3867 24.8682 31.3867 31.1319C31.3867 37.3956 36.4824 42.4913 42.7461 42.4913ZM42.7461 22.4032C47.5586 22.4032 51.4748 26.3186 51.4748 31.1319C51.4748 35.9443 47.5586 39.8606 42.7461 39.8606C37.9328 39.8606 34.0174 35.9452 34.0174 31.1319C34.0174 26.3186 37.9328 22.4032 42.7461 22.4032Z" fill="currentColor"/>
<path d="M17.3465 51.4862C19.5045 51.4862 21.624 52.0614 23.476 53.1505C24.1021 53.5206 24.9089 53.3093 25.2763 52.684C25.6446 52.0579 25.4359 51.2512 24.8089 50.8829C22.5535 49.5561 19.9728 48.8555 17.3465 48.8555C9.22897 48.8555 2.625 55.4594 2.625 63.5769C2.625 64.303 3.2134 64.8923 3.94036 64.8923H20.6121C21.339 64.8923 21.9274 64.303 21.9274 63.5769C21.9274 62.8509 21.339 62.2616 20.6121 62.2616H5.32674C5.98442 56.2109 11.124 51.4862 17.3465 51.4862Z" fill="currentColor"/>
<path d="M17.1134 46.756C21.9547 46.756 25.8947 42.8169 25.8947 37.9747C25.8947 33.1324 21.9556 29.1934 17.1134 29.1934C12.2711 29.1934 8.33203 33.1324 8.33203 37.9747C8.33203 42.8161 12.2711 46.756 17.1134 46.756ZM17.1134 31.8241C20.5043 31.8241 23.264 34.5828 23.264 37.9747C23.264 41.3657 20.5052 44.1253 17.1134 44.1253C13.7215 44.1253 10.9627 41.3665 10.9627 37.9747C10.9627 34.5828 13.7215 31.8241 17.1134 31.8241Z" fill="currentColor"/>
<path d="M68.8851 48.8555C66.2597 48.8555 63.6789 49.557 61.4227 50.8829C60.7957 51.2512 60.587 52.057 60.9553 52.6832C61.3236 53.311 62.1321 53.5188 62.7556 53.1505C64.6085 52.0614 66.7279 51.4862 68.8851 51.4862C75.1076 51.4862 80.2472 56.2109 80.9049 62.2616H65.6222C64.8961 62.2616 64.3068 62.8509 64.3068 63.5769C64.3068 64.303 64.8961 64.8923 65.6222 64.8923H82.2912C83.0173 64.8923 83.6066 64.303 83.6066 63.5769C83.6066 55.4594 77.0026 48.8555 68.8851 48.8555Z" fill="currentColor"/>
<path d="M69.1181 46.756C73.9595 46.756 77.8995 42.8169 77.8995 37.9747C77.8995 33.1324 73.9604 29.1934 69.1181 29.1934C64.2759 29.1934 60.3359 33.1324 60.3359 37.9747C60.3368 42.8161 64.2759 46.756 69.1181 46.756ZM69.1181 31.8241C72.5091 31.8241 75.2687 34.5828 75.2687 37.9747C75.2687 41.3657 72.51 44.1253 69.1181 44.1253C65.7263 44.1253 62.9667 41.3665 62.9667 37.9747C62.9675 34.5828 65.7263 31.8241 69.1181 31.8241Z" fill="currentColor"/>
</svg>
