<svg width="88" height="88" viewBox="0 0 88 88" fill="none" xmlns="http://www.w3.org/2000/svg">
<path d="M81.4259 52.9397L74.9398 48.5573V35.4098L81.4259 31.115C81.7765 30.8521 82.0394 30.5015 82.0394 30.0632C82.0394 29.625 81.7765 29.1867 81.4259 29.0114L48.0315 6.57319C47.5932 6.31024 46.9797 6.31024 46.5414 6.57319L5.34621 34.0951C5.17091 34.1828 5.08326 34.2704 4.99561 34.4457C4.99561 34.4457 4.99561 34.4457 4.99561 34.5333C4.82031 34.7963 4.82031 34.9716 4.82031 35.2345V59.3381C4.82031 59.7764 5.08326 60.2146 5.43386 60.3899L38.8283 82.6529C39.0912 82.8282 39.2665 82.9158 39.5295 82.9158C39.7924 82.9158 40.0554 82.8282 40.2307 82.6529L81.5135 55.131C81.8641 54.868 82.1271 54.5174 82.1271 54.0792C82.0394 53.5533 81.7765 53.115 81.4259 52.9397ZM47.3303 9.29032L78.3582 29.9756L73.2745 33.3063C73.0115 33.3939 72.7486 33.5692 72.5733 33.7445L39.4418 55.8321L14.5494 39.2664C14.4617 39.1788 14.3741 39.1788 14.3741 39.0911L8.41394 35.1469L47.3303 9.29032ZM14.9876 42.7724L38.653 58.5493C39.0912 58.8122 39.7048 58.8122 40.143 58.5493L72.3103 37.0752V47.8561L39.6171 69.4178L14.9876 53.6409V42.7724ZM39.4418 79.9357L7.36214 58.5493V37.6887L12.4458 41.0194V54.3421C12.4458 54.7804 12.7088 55.2186 13.0594 55.4816L39.0036 72.1349C39.1789 72.3102 39.4418 72.3102 39.7048 72.3102C39.9677 72.3102 40.2307 72.2226 40.406 72.1349L73.1868 50.5732L78.3582 54.0792L39.4418 79.9357Z" fill="currentColor"/>
<path d="M41.6331 21.2989L57.2347 31.9922C57.4976 32.1675 57.7606 32.2551 57.9359 32.2551C58.3741 32.2551 58.7247 32.0798 58.9877 31.6416C59.4259 31.028 59.2506 30.2392 58.6371 29.8009L43.1231 19.1077C42.5096 18.6695 41.7208 18.8448 41.2825 19.4583C40.8443 20.0718 41.0196 20.8607 41.6331 21.2989Z" fill="currentColor"/>
</svg>
