<svg width="88" height="88" viewBox="0 0 88 88" fill="none" xmlns="http://www.w3.org/2000/svg">
<path d="M81.5998 38.6104L69.6248 13.1197C69.5436 12.9406 69.4091 12.7817 69.265 12.6594C69.0353 12.4576 68.7427 12.3379 68.4125 12.3379H50.6649C50.0744 9.83814 47.8428 7.9707 45.1805 7.9707C42.5182 7.9707 40.2857 9.83814 39.6961 12.3379H21.8987C21.331 12.3379 20.8523 12.7004 20.6706 13.2053C20.5265 13.3276 20.3999 13.4726 20.3186 13.6516L8.34365 39.1424C8.34365 39.1424 8.07812 39.5913 8.07812 40.0665C8.07812 48.1957 14.3477 54.8085 22.0533 54.8085C29.7589 54.8085 36.0285 48.1957 36.0285 40.0665C36.0285 39.6463 35.9874 39.5232 35.6573 38.8995L23.3565 14.9583H39.6952C40.1835 17.0257 41.795 18.6547 43.845 19.1578V68.2387H31.373C30.6489 68.2387 30.0628 68.8248 30.0628 69.5489V75.663C30.0628 76.3871 30.6489 76.9732 31.373 76.9732H59.0998C59.8239 76.9732 60.41 76.3871 60.41 75.663V69.5489C60.41 68.8248 59.8239 68.2387 59.0998 68.2387H46.4662V19.1709C48.5398 18.6818 50.174 17.0423 50.6658 14.9583H66.2987L54.2862 38.3676C53.956 38.9912 53.915 39.1144 53.915 39.5345C53.915 47.6637 60.1846 54.2766 67.8902 54.2766C75.5957 54.2766 81.8654 47.6637 81.8654 39.5345C81.8654 39.0594 81.5998 38.6104 81.5998 38.6104ZM22.0533 52.1873C16.2073 52.1873 11.378 47.4454 10.764 41.3758H33.3426C32.7286 47.4462 27.8993 52.1873 22.0533 52.1873ZM32.6579 38.7563L11.2723 39.0323L21.5677 17.2389L32.6579 38.7563ZM57.7896 70.8582V74.352H32.6832V70.8582H57.7896ZM48.1773 13.8997C48.048 15.4658 46.7614 16.7043 45.1805 16.7043C43.514 16.7043 42.1584 15.333 42.1584 13.6472C42.1584 11.9615 43.514 10.5902 45.1805 10.5902C46.7614 10.5902 48.048 11.8287 48.1773 13.3948C48.1616 13.4769 48.152 13.5608 48.152 13.6472C48.152 13.7337 48.1616 13.8184 48.1773 13.8997ZM68.3767 16.7069L78.672 38.5004L57.2865 38.2244L68.3767 16.7069ZM67.8902 51.6554C62.0442 51.6554 57.2149 46.9143 56.6008 40.8438H79.1795C78.5655 46.9134 73.7362 51.6554 67.8902 51.6554Z" fill="currentColor"/>
</svg>
