<svg width="88" height="88" viewBox="0 0 88 88" fill="none" xmlns="http://www.w3.org/2000/svg">
<path d="M69.3317 8.85205H55.3955V2.89189C55.3955 2.19069 54.782 1.57715 54.0808 1.57715H33.3078C32.6067 1.57715 31.9931 2.19069 31.9931 2.89189V8.85205H17.268C14.2003 8.85205 11.7461 11.3062 11.7461 14.374V80.4616C11.7461 83.5293 14.2003 85.9835 17.268 85.9835H69.4194C72.4871 85.9835 74.9413 83.5293 74.9413 80.4616V14.374C74.8537 11.3062 72.3995 8.85205 69.3317 8.85205ZM33.3078 25.856H54.0808C54.782 25.856 55.3955 25.2425 55.3955 24.5413V18.8441H64.5987V75.5532H22.0011V18.9317H31.9931V24.5413C31.9931 25.3301 32.6067 25.856 33.3078 25.856ZM52.766 4.20663V17.5293V23.2266H34.6226V17.5293V10.0791V4.20663H52.766ZM72.2242 80.374C72.2242 81.9516 70.9094 83.2664 69.3317 83.2664H17.268C15.6903 83.2664 14.3756 81.9516 14.3756 80.374V14.374C14.3756 12.7963 15.6903 11.4815 17.268 11.4815H31.9931V16.3022H20.6863C19.9851 16.3022 19.3716 16.9158 19.3716 17.617V76.9556C19.3716 77.6568 19.9851 78.2704 20.6863 78.2704H65.9134C66.6146 78.2704 67.2282 77.6568 67.2282 76.9556V17.617C67.2282 16.9158 66.6146 16.3022 65.9134 16.3022H55.3955V11.4815H69.3317C70.9094 11.4815 72.2242 12.7963 72.2242 14.374V80.374Z" fill="currentColor"/>
<path d="M25.2461 40.6692C25.2461 41.3704 25.8596 41.984 26.5608 41.984H60.3059C61.0071 41.984 61.6206 41.3704 61.6206 40.6692C61.6206 39.968 61.0071 39.3545 60.3059 39.3545H26.5608C25.8596 39.3545 25.2461 39.968 25.2461 40.6692Z" fill="currentColor"/>
<path d="M60.3059 48.5576H26.5608C25.8596 48.5576 25.2461 49.1712 25.2461 49.8724C25.2461 50.5736 25.8596 51.1871 26.5608 51.1871H60.3059C61.0071 51.1871 61.6206 50.5736 61.6206 49.8724C61.6206 49.1712 61.0071 48.5576 60.3059 48.5576Z" fill="currentColor"/>
<path d="M60.3059 58.1982H26.5608C25.8596 58.1982 25.2461 58.8118 25.2461 59.513C25.2461 60.2142 25.8596 60.8277 26.5608 60.8277H60.3059C61.0071 60.8277 61.6206 60.2142 61.6206 59.513C61.6206 58.8118 61.0071 58.1982 60.3059 58.1982Z" fill="currentColor"/>
</svg>
