<svg width="88" height="88" viewBox="0 0 88 88" fill="none" xmlns="http://www.w3.org/2000/svg">
<path d="M73.8001 80.6375L63.7204 60.4781C63.1945 59.514 63.1068 59.251 62.8439 58.7252L50.31 33.7451V15.0758H55.7443C56.4455 15.0758 57.059 14.4622 57.059 13.761V7.01201C57.059 6.31081 56.4455 5.69727 55.7443 5.69727H28.7483C28.0471 5.69727 27.4335 6.31081 27.4335 7.01201V13.761C27.4335 14.4622 28.0471 15.0758 28.7483 15.0758H34.1825V33.6574L21.6487 58.7252C21.3857 59.251 21.2104 59.6893 20.7722 60.4781L10.6925 80.6375C10.5172 81.0758 10.5172 81.514 10.7801 81.9522C11.0431 82.3905 11.4813 82.5658 11.9196 82.5658H72.6606C73.0989 82.5658 73.5371 82.3028 73.8001 81.9522C74.063 81.6016 73.9753 81.0758 73.8001 80.6375ZM36.6367 34.6216C36.7244 34.4463 36.812 34.271 36.812 34.008V13.761C36.812 13.0598 36.1985 12.4463 35.4973 12.4463H30.063V8.32675H54.4295V12.4463H48.9953C48.2941 12.4463 47.6805 13.0598 47.6805 13.761V34.008C47.6805 34.1833 47.7682 34.4463 47.8558 34.6216L60.2144 59.251C59.7761 59.514 59.5132 59.7769 59.1626 59.9522C58.6367 60.3905 58.2861 60.6534 57.4096 60.6534C56.5331 60.6534 56.2702 60.3905 55.6566 59.9522C54.9554 59.4263 53.9913 58.6375 52.326 58.6375C50.573 58.6375 49.6965 59.4263 48.9953 59.9522C48.4694 60.3905 48.1188 60.6534 47.3299 60.6534C46.5411 60.6534 46.1905 60.3905 45.6646 59.9522C44.9634 59.4263 43.9993 58.6375 42.3339 58.6375C40.5809 58.6375 39.7044 59.4263 39.0032 59.9522C38.4773 60.3905 38.1267 60.6534 37.3379 60.6534C36.5491 60.6534 36.1985 60.3905 35.6726 59.9522C34.9714 59.4263 34.0072 58.6375 32.3419 58.6375C30.6766 58.6375 29.7124 59.4263 29.0112 59.9522C28.4853 60.3905 28.1347 60.6534 27.3459 60.6534C26.557 60.6534 26.2064 60.3905 25.6805 59.9522C25.4176 59.6893 25.067 59.4263 24.6287 59.251L36.6367 34.6216ZM14.0232 79.9363L23.1387 61.6176C23.314 61.7052 23.4893 61.8805 23.6646 62.0558C24.3658 62.5817 25.3299 63.3706 26.9953 63.3706C28.7483 63.3706 29.6248 62.5817 30.326 62.0558C30.8518 61.6176 31.2024 61.3546 31.9913 61.3546C32.7801 61.3546 33.1307 61.6176 33.6566 62.0558C34.3578 62.5817 35.322 63.3706 36.9873 63.3706C38.6526 63.3706 39.6168 62.5817 40.318 62.0558C40.8439 61.6176 41.1945 61.3546 41.9833 61.3546C42.7722 61.3546 43.1228 61.6176 43.6487 62.0558C44.3499 62.5817 45.314 63.3706 46.9793 63.3706C48.7323 63.3706 49.6088 62.5817 50.31 62.0558C50.8359 61.6176 51.1865 61.3546 51.9754 61.3546C52.7642 61.3546 53.1148 61.6176 53.7283 62.0558C54.4295 62.5817 55.3937 63.3706 57.059 63.3706C58.7244 63.3706 59.6885 62.5817 60.3897 62.0558C60.565 61.8805 60.7403 61.7929 60.9156 61.6176L70.0311 79.9363H14.0232Z" fill="currentColor"/>
</svg>
