<svg width="88" height="88" viewBox="0 0 88 88" fill="none" xmlns="http://www.w3.org/2000/svg">
<path d="M74.0075 6.91113H13.9951C13.2681 6.91113 12.6797 7.49954 12.6797 8.2265V79.7747C12.6797 80.5008 13.2681 81.0901 13.9951 81.0901H74.0084C74.7345 81.0901 75.3237 80.5008 75.3237 79.7747V8.2265C75.3229 7.49954 74.7336 6.91113 74.0075 6.91113ZM72.6921 78.4585H15.3104V9.54187H72.693L72.6921 78.4585Z" fill="currentColor"/>
<path d="M22.1474 35.2297H66.2561C66.9831 35.2297 67.5715 34.6404 67.5715 33.9143V15.9736C67.5715 15.2466 66.9831 14.6582 66.2561 14.6582H22.1474C21.4204 14.6582 20.832 15.2466 20.832 15.9736V33.9135C20.832 34.6404 21.4204 35.2297 22.1474 35.2297ZM23.4628 17.2898H64.9408V32.599H23.4628V17.2898Z" fill="currentColor"/>
<path d="M31.5406 41.6328H22.6083C21.8814 41.6328 21.293 42.2221 21.293 42.9482V51.8813C21.293 52.6074 21.8814 53.1967 22.6083 53.1967H31.5406C32.2675 53.1967 32.8559 52.6074 32.8559 51.8813V42.9482C32.8559 42.2221 32.2667 41.6328 31.5406 41.6328ZM30.2252 50.5659H23.9237V44.2636H30.2252V50.5659Z" fill="currentColor"/>
<path d="M31.2476 59.001H22.3154C21.5884 59.001 21 59.5903 21 60.3163V69.2486C21 69.9747 21.5884 70.564 22.3154 70.564H31.2476C31.9746 70.564 32.563 69.9747 32.563 69.2486V60.3163C32.563 59.5894 31.9737 59.001 31.2476 59.001ZM29.9322 67.9332H23.6307V61.6308H29.9322V67.9332Z" fill="currentColor"/>
<path d="M65.7897 41.6328H56.8583C56.1314 41.6328 55.543 42.2221 55.543 42.9482V51.8813C55.543 52.6074 56.1314 53.1967 56.8583 53.1967H65.7906C66.5175 53.1967 67.1059 52.6074 67.1059 51.8813V42.9482C67.1051 42.2221 66.5167 41.6328 65.7897 41.6328ZM64.4743 50.5659H58.1737V44.2636H64.4752L64.4743 50.5659Z" fill="currentColor"/>
<path d="M65.7897 58.9414H56.8583C56.1314 58.9414 55.543 59.5307 55.543 60.2568V69.189C55.543 69.9151 56.1314 70.5044 56.8583 70.5044H65.7906C66.5175 70.5044 67.1059 69.9151 67.1059 69.189V60.2568C67.1051 59.5298 66.5167 58.9414 65.7897 58.9414ZM64.4743 67.8736H58.1737V61.5713H64.4752L64.4743 67.8736Z" fill="currentColor"/>
<path d="M48.9598 41.3389H40.0302C39.3033 41.3389 38.7148 41.9282 38.7148 42.6542V51.5874C38.7148 52.3134 39.3033 52.9027 40.0302 52.9027H48.9598C49.6868 52.9027 50.2752 52.3134 50.2752 51.5874V42.6542C50.2752 41.9282 49.6859 41.3389 48.9598 41.3389ZM47.6444 50.272H41.3456V43.9696H47.6444V50.272Z" fill="currentColor"/>
<path d="M48.9598 58.6465H40.0302C39.3033 58.6465 38.7148 59.2358 38.7148 59.9619V68.8958C38.7148 69.6219 39.3033 70.2112 40.0302 70.2112H48.9598C49.6868 70.2112 50.2752 69.6219 50.2752 68.8958V59.9619C50.2752 59.2358 49.6859 58.6465 48.9598 58.6465ZM47.6444 67.5796H41.3456V61.2763H47.6444V67.5796Z" fill="currentColor"/>
</svg>
