<svg width="88" height="88" viewBox="0 0 88 88" fill="none" xmlns="http://www.w3.org/2000/svg">
<path d="M81.627 5.82073C81.1152 5.30976 80.2863 5.30976 79.7744 5.82073L63.9631 21.6373L61.9926 19.6677C61.7471 19.4222 61.4135 19.2842 61.0658 19.2842C60.7182 19.2842 60.3854 19.4222 60.1391 19.6685L54.8861 24.925L50.8874 20.9254C50.642 20.68 50.3083 20.542 49.9607 20.542C49.6131 20.542 49.2803 20.68 49.034 20.9254L43.3731 26.5863C43.3705 26.5889 43.3678 26.5889 43.3652 26.5916C43.3626 26.5942 43.3626 26.5968 43.36 26.5994L35.9068 34.0535C35.9024 34.0579 35.8972 34.0587 35.8928 34.0622C35.8884 34.0657 35.8875 34.0718 35.8841 34.0762L28.4413 41.519C28.4361 41.5242 28.4291 41.5251 28.4247 41.5303C28.4204 41.5355 28.4186 41.5417 28.4134 41.5469L20.975 48.9853C20.9689 48.9914 20.961 48.9923 20.9549 48.9984C20.9488 49.0045 20.9471 49.0123 20.9418 49.0185L15.0329 54.9274C14.7874 55.1728 14.6494 55.5065 14.6494 55.8541C14.6494 56.2009 14.7874 56.5346 15.0329 56.7809L19.0324 60.7796L11.9557 67.8546L7.95524 63.8533C7.44339 63.3414 6.61448 63.3414 6.10263 63.8533C5.59079 64.3651 5.59079 65.194 6.10263 65.7059L16.813 76.4171C16.8147 76.4188 16.8156 76.4214 16.8173 76.4241C16.8191 76.4267 16.8217 76.4267 16.8243 76.4284L21.9192 81.5242C22.1751 81.7801 22.5105 81.9076 22.8459 81.9076C23.1814 81.9076 23.5168 81.7801 23.7727 81.5242C24.2845 81.0123 24.2845 80.1834 23.7727 79.6716L19.5967 75.4973L26.6752 68.4214L30.6774 72.4236C30.9333 72.6796 31.2687 72.8071 31.6041 72.8071C31.9395 72.8071 32.2749 72.6796 32.5308 72.4236L66.5284 38.4217C67.0403 37.9098 67.0403 37.0809 66.5284 36.5691L62.5306 32.5712L67.7836 27.3087C68.2946 26.7968 68.2937 25.9679 67.7827 25.4561L65.8157 23.4908L81.627 7.67333C82.1389 7.16149 82.1389 6.3317 81.627 5.82073ZM17.7441 73.6439L13.8074 69.7072L20.8842 62.6313L24.8208 66.568L17.7441 73.6439ZM31.6041 69.6434L21.8196 59.8607C21.817 59.8581 21.8161 59.8537 21.8135 59.8511C21.8109 59.8485 21.8065 59.8476 21.8039 59.845L17.8122 55.8541L21.8851 51.7812L26.8202 56.7145C27.0761 56.9704 27.4115 57.0979 27.7469 57.0979C28.0823 57.0979 28.4177 56.9704 28.6737 56.7145C29.1846 56.2026 29.1846 55.3729 28.6737 54.8619L23.7386 49.9286L29.355 44.3123L34.2865 49.2438C34.5424 49.4997 34.8778 49.6273 35.2132 49.6273C35.5486 49.6273 35.8841 49.4997 36.14 49.2438C36.6518 48.732 36.6518 47.9022 36.14 47.3912L31.2084 42.4597L36.8248 36.8433L41.7616 41.7757C42.0175 42.0317 42.352 42.1592 42.6874 42.1592C43.0228 42.1592 43.3582 42.0317 43.6142 41.7749C44.1251 41.263 44.1251 40.4332 43.6133 39.9223L38.6774 34.9907L44.2955 29.3726L49.2279 34.3059C49.4829 34.5619 49.8192 34.6894 50.1546 34.6894C50.49 34.6894 50.8254 34.5619 51.0813 34.3059C51.5932 33.795 51.5932 32.9652 51.0813 32.4533L46.1489 27.52L49.9633 23.7048L53.9559 27.6982C53.9585 27.7008 53.9585 27.7035 53.9611 27.7052L59.7539 33.4971C59.7548 33.498 59.7557 33.4989 59.7565 33.4997L63.7509 37.4949L31.6041 69.6434ZM60.678 30.7169L56.7396 26.7776L61.0667 22.447L63.0311 24.4105C63.0329 24.4123 63.0337 24.4158 63.0355 24.4175C63.0372 24.4193 63.0407 24.4201 63.0425 24.4219L65.0043 26.3828L60.678 30.7169Z" fill="currentColor"/>
</svg>
