<svg width="88" height="88" viewBox="0 0 88 88" fill="none" xmlns="http://www.w3.org/2000/svg">
<path d="M71.057 17.3701C63.8822 10.2514 54.3766 6.33594 44.2748 6.33594C44.2239 6.33594 44.1731 6.33594 44.1222 6.33594C23.1513 6.41837 6.15789 23.5454 6.23857 44.5167C6.27803 54.6758 10.2714 64.2105 17.4821 71.3652C24.6578 78.4849 34.1624 82.4003 44.2643 82.3994C44.3151 82.3994 44.3669 82.3994 44.4177 82.3994C65.3878 82.3178 82.3821 65.1909 82.3005 44.2195C82.2619 34.0613 78.2685 24.5258 71.057 17.3701ZM44.4081 79.7687C34.9762 79.8037 26.0485 76.1593 19.3359 69.4983C12.6232 62.8372 8.90608 53.962 8.86925 44.5062C8.79384 24.9861 24.6122 9.04297 44.1319 8.96668C44.1801 8.96668 44.2257 8.96668 44.2739 8.96668C53.6769 8.96668 62.5256 12.6111 69.2041 19.238C75.9167 25.8981 79.6339 34.7734 79.6707 44.23C79.7461 63.7501 63.9269 79.6924 44.4081 79.7687Z" fill="currentColor"/>
<path d="M28.6218 48.4721C28.6271 48.4721 28.6332 48.4721 28.6385 48.4721C30.8817 48.4634 32.6986 46.6315 32.6898 44.3892C32.6811 42.1522 30.858 40.3379 28.6227 40.3379C28.6175 40.3379 28.6113 40.3379 28.6061 40.3379C26.3629 40.3467 24.5459 42.1785 24.5547 44.4208C24.5644 46.6587 26.3866 48.4721 28.6218 48.4721ZM28.6166 42.9686C28.6183 42.9686 28.6201 42.9686 28.6227 42.9686C29.4119 42.9686 30.0556 43.6088 30.0591 44.3989C30.0609 44.783 29.9127 45.1443 29.6417 45.4161C29.3716 45.6888 29.0112 45.8388 28.628 45.8405C28.2413 45.8519 27.8826 45.6941 27.6108 45.424C27.338 45.1539 27.1881 44.7935 27.1863 44.4103C27.1828 43.6184 27.8247 42.9721 28.6166 42.9686Z" fill="currentColor"/>
<path d="M43.7742 48.4721C43.7795 48.4721 43.7856 48.4721 43.7908 48.4721C46.034 48.4634 47.851 46.6315 47.8422 44.3892C47.8334 42.1522 46.0103 40.3379 43.7751 40.3379C43.7698 40.3379 43.7637 40.3379 43.7584 40.3379C41.5153 40.3467 39.6983 42.1785 39.7071 44.4208C39.7114 45.5073 40.1385 46.5271 40.9102 47.2918C41.6775 48.0539 42.6938 48.4721 43.7742 48.4721ZM43.7689 42.9686C43.7707 42.9686 43.7733 42.9686 43.7751 42.9686C44.5643 42.9686 45.2079 43.6088 45.2115 44.3989C45.2132 44.783 45.065 45.1443 44.794 45.4161C44.5239 45.6888 44.1635 45.8388 43.7803 45.8405C43.7786 45.8405 43.7759 45.8405 43.7742 45.8405C43.3927 45.8405 43.0341 45.6932 42.7631 45.424C42.4904 45.153 42.3404 44.7935 42.3387 44.4094C42.3343 43.6184 42.9771 42.9721 43.7689 42.9686Z" fill="currentColor"/>
<path d="M58.9226 48.4721C58.9279 48.4721 58.934 48.4721 58.9393 48.4721C61.1824 48.4634 62.9994 46.6315 62.9906 44.3892C62.9819 42.1522 61.1588 40.3379 58.9235 40.3379C58.9182 40.3379 58.9121 40.3379 58.9068 40.3379C56.6637 40.3467 54.8467 42.1785 54.8555 44.4208C54.8599 45.5073 55.2869 46.5271 56.0586 47.2918C56.8259 48.0539 57.8423 48.4721 58.9226 48.4721ZM58.9174 42.9686C58.9191 42.9686 58.9218 42.9686 58.9235 42.9686C59.7127 42.9686 60.3564 43.6088 60.3599 44.3989C60.3616 44.783 60.2134 45.1443 59.9425 45.4161C59.6724 45.6888 59.312 45.8388 58.9288 45.8405C58.927 45.8405 58.9244 45.8405 58.9226 45.8405C58.5412 45.8405 58.1825 45.6932 57.9115 45.424C57.6388 45.153 57.4889 44.7935 57.4871 44.4094C57.4827 43.6184 58.1255 42.9721 58.9174 42.9686Z" fill="currentColor"/>
</svg>
