<svg width="88" height="88" viewBox="0 0 88 88" fill="none" xmlns="http://www.w3.org/2000/svg">
<path d="M81.4259 52.9407L74.9398 48.5582V35.4108L81.4259 31.116C81.7765 30.8531 82.0394 30.5025 82.0394 30.0642C82.0394 29.626 81.7765 29.1877 81.4259 29.0124L48.0315 6.57416C47.5932 6.31122 46.9797 6.31122 46.5414 6.57416L5.34621 34.0961C5.17091 34.1837 5.08326 34.2714 4.99561 34.4467C4.99561 34.4467 4.99561 34.4467 4.99561 34.5343C4.82031 34.7973 4.82031 34.9726 4.82031 35.2355V59.3391C4.82031 59.7773 5.08326 60.2156 5.43386 60.3909L38.8283 82.6538C39.0912 82.8291 39.2665 82.9168 39.5295 82.9168C39.7924 82.9168 40.0554 82.8291 40.2307 82.6538L81.5135 55.1319C81.8641 54.869 82.1271 54.5184 82.1271 54.0801C82.0394 53.5542 81.7765 53.116 81.4259 52.9407ZM47.3303 9.2913L78.3582 29.9766L73.2745 33.3072C73.0116 33.3949 72.7486 33.5702 72.5733 33.7455L39.4418 55.8331L14.5494 39.2674C14.4617 39.1797 14.3741 39.1797 14.3741 39.0921L8.41394 35.1479L47.3303 9.2913ZM14.9876 42.7734L38.653 58.5503C39.0912 58.8132 39.7048 58.8132 40.143 58.5503L72.3104 37.0762V47.857L39.6171 69.4188L14.9876 53.6419V42.7734ZM39.4418 79.9367L7.36214 58.5503V37.6897L12.4458 41.0204V54.3431C12.4458 54.7813 12.7088 55.2196 13.0594 55.4825L39.0036 72.1359C39.1789 72.3112 39.4418 72.3112 39.7048 72.3112C39.9677 72.3112 40.2307 72.2236 40.406 72.1359L73.1869 50.5742L78.3582 54.0801L39.4418 79.9367Z" fill="currentColor"/>
<path d="M41.6331 21.2989L57.2347 31.9922C57.4977 32.1675 57.7606 32.2551 57.9359 32.2551C58.3741 32.2551 58.7247 32.0798 58.9877 31.6416C59.4259 31.028 59.2506 30.2392 58.6371 29.8009L43.1231 19.1077C42.5096 18.6695 41.7208 18.8448 41.2825 19.4583C40.8443 20.0718 41.0196 20.8607 41.6331 21.2989Z" fill="currentColor"/>
</svg>
