<svg width="88" height="88" viewBox="0 0 88 88" fill="none" xmlns="http://www.w3.org/2000/svg">
<path d="M46.8085 4.81348C30.3946 4.81348 17.0411 18.1679 17.0411 34.5835C17.0411 35.6928 17.1016 36.8038 17.2217 37.8956C15.0601 40.272 8.77537 47.7801 12.0541 51.3876C12.7136 52.1146 15.5591 54.0026 17.6198 54.7795L17.6058 58.4546C17.6058 66.2336 22.9558 74.502 32.8271 74.5011L38.313 74.6826V81.5611C38.313 82.2871 38.9014 82.8764 39.6284 82.8764C40.3553 82.8764 40.9437 82.2871 40.9437 81.5611V73.4102C40.9437 72.6999 40.3808 72.1185 39.6722 72.0957L32.871 71.8712C24.5763 71.8712 20.2365 65.1217 20.2365 58.4599L20.2541 53.8552C20.2541 53.7676 20.2462 53.6799 20.2286 53.5913C20.1155 53.0257 19.6516 52.6118 19.1 52.5443C18.3047 52.2689 15.0347 50.758 14.0017 49.6189C13.1336 48.664 14.5814 44.5267 19.5578 39.2434C19.8288 38.9558 19.9559 38.562 19.905 38.1701C19.7507 36.995 19.6727 35.7884 19.6727 34.5826C19.6727 19.6183 31.8459 7.44331 46.8094 7.44331C61.7755 7.44331 73.9522 19.6183 73.9522 34.5826C73.9522 42.3529 70.6094 49.7627 64.7815 54.911C64.4991 55.1601 64.3369 55.5187 64.3369 55.8958L64.3185 81.4076C64.3176 82.1337 64.9069 82.7229 65.633 82.7238H65.6339C66.3599 82.7238 66.9483 82.1354 66.9492 81.4093L66.9676 56.4825C73.0858 50.8545 76.5829 42.908 76.5829 34.5826C76.582 18.1679 63.2259 4.81348 46.8085 4.81348Z" fill="currentColor"/>
<path d="M46.8907 17.749C37.2351 17.749 29.3789 25.5982 29.3789 35.2459C29.3789 35.9729 29.9673 36.5613 30.6943 36.5613C31.4212 36.5613 32.0096 35.9729 32.0096 35.2459C32.0096 27.0486 38.6855 20.3797 46.8907 20.3797C55.0933 20.3797 61.7656 27.0486 61.7656 35.2459C61.7656 39.7409 59.8627 43.9509 56.6752 46.508C54.789 48.0224 51.6137 49.6184 47.2055 48.6397C40.4279 47.1306 39.9018 40.3074 39.9018 38.251C39.9018 33.9788 43.2656 30.4966 47.423 30.437C47.4914 30.4484 47.5615 30.4536 47.6317 30.4536C49.9713 30.4536 51.8741 32.3565 51.8741 34.6952C51.8741 37.0383 49.9713 38.9438 47.6317 38.9438C46.9056 38.9438 46.3163 39.5322 46.3163 40.2592C46.3163 40.9861 46.9056 41.5745 47.6317 41.5745C51.4217 41.5745 54.5049 38.4878 54.5049 34.6952C54.5049 30.9464 51.4866 27.8887 47.7518 27.8238C47.679 27.8115 47.6054 27.8054 47.5317 27.8054C41.8739 27.8054 37.271 32.4915 37.271 38.251C37.271 43.5072 39.7308 49.6701 46.6346 51.2064C47.7071 51.445 48.7725 51.5625 49.8222 51.5625C52.9168 51.5625 55.8562 50.5374 58.3211 48.5599C62.1252 45.5083 64.3963 40.531 64.3963 35.245C64.3963 25.5982 56.5428 17.749 46.8907 17.749Z" fill="currentColor"/>
</svg>
