<svg width="18" height="18" viewBox="0 0 18 18" fill="none" xmlns="http://www.w3.org/2000/svg">
<path d="M8.4375 6.1875H9.5625V11.25H8.4375V6.1875Z" fill="#8892A4"/>
<path d="M7.3125 1.125H10.6875V2.25H7.3125V1.125Z" fill="#8892A4"/>
<path d="M15.7501 5.06263L14.9513 4.2695L13.6857 5.53513C12.6497 4.3387 11.1925 3.58743 9.61703 3.4374C8.04152 3.28736 6.46877 3.75011 5.22557 4.72948C3.98236 5.70885 3.16427 7.12956 2.94129 8.69641C2.71831 10.2633 3.10757 11.8558 4.02819 13.1431C4.94882 14.4304 6.33003 15.3135 7.88484 15.609C9.43966 15.9045 11.0485 15.5895 12.3772 14.7296C13.7058 13.8697 14.6521 12.531 15.0194 10.9916C15.3867 9.45213 15.1467 7.83037 14.3494 6.46325L15.7501 5.06263ZM9.00006 14.6251C7.99879 14.6251 7.02001 14.3282 6.18748 13.7719C5.35496 13.2157 4.70609 12.425 4.32292 11.5C3.93975 10.5749 3.83949 9.55701 4.03483 8.57498C4.23017 7.59295 4.71233 6.6909 5.42033 5.9829C6.12833 5.27489 7.03038 4.79274 8.01241 4.5974C8.99444 4.40206 10.0123 4.50232 10.9374 4.88548C11.8624 5.26865 12.6531 5.91753 13.2094 6.75005C13.7656 7.58257 14.0626 8.56136 14.0626 9.56262C14.0626 10.9053 13.5292 12.193 12.5798 13.1424C11.6304 14.0918 10.3427 14.6251 9.00006 14.6251Z" fill="#8892A4"/>
</svg>
