<svg width="88" height="88" viewBox="0 0 88 88" fill="none" xmlns="http://www.w3.org/2000/svg">
<path d="M76.9296 18.7773H11.9924C9.46779 18.7773 7.41406 20.6145 7.41406 22.8725V62.73C7.41406 64.988 9.46779 66.826 11.9924 66.826H76.9296C79.4542 66.826 81.508 64.988 81.508 62.73V22.8725C81.508 20.6145 79.4542 18.7773 76.9296 18.7773ZM78.8772 62.73C78.8772 63.5236 77.9854 64.1953 76.9296 64.1953H11.9924C10.9366 64.1953 10.0448 63.5236 10.0448 62.73V22.8725C10.0448 22.0789 10.9366 21.4081 11.9924 21.4081H76.9296C77.9854 21.4081 78.8772 22.0789 78.8772 22.8725V62.73Z" fill="currentColor"/>
<path d="M52.2287 41.6874L41.9145 35.1903C41.5102 34.9343 40.9972 34.9193 40.578 35.1517C40.158 35.3832 39.8984 35.8243 39.8984 36.3031V49.2972C39.8984 49.776 40.1589 50.2171 40.578 50.4486C40.7762 50.5582 40.9946 50.6126 41.2138 50.6126C41.4576 50.6126 41.7014 50.5451 41.9145 50.4109L52.2287 43.913C52.611 43.6727 52.8426 43.2518 52.8426 42.8002C52.8426 42.3486 52.611 41.9276 52.2287 41.6874ZM42.5292 46.9138V38.6857L49.0595 42.7993L42.5292 46.9138Z" fill="currentColor"/>
</svg>
