<svg width="20" height="20" viewBox="0 0 20 20" fill="none" xmlns="http://www.w3.org/2000/svg">
<path d="M16.0483 10.5693C16.0386 8.92994 16.7814 7.69441 18.2813 6.78339C17.4424 5.58151 16.1733 4.92048 14.5002 4.79308C12.9162 4.66809 11.1831 5.71612 10.5485 5.71612C9.87783 5.71612 8.34424 4.83635 7.13755 4.83635C4.64726 4.87481 2.00073 6.82185 2.00073 10.7832C2.00073 11.9539 2.21467 13.163 2.64253 14.4081C3.21463 16.0475 5.27705 20.0641 7.42841 19.9992C8.55336 19.9728 9.349 19.2012 10.8129 19.2012C12.2335 19.2012 12.9691 19.9992 14.2238 19.9992C16.3944 19.968 18.2597 16.3167 18.803 14.6725C15.892 13.3 16.0483 10.6534 16.0483 10.5693ZM13.5219 3.23785C14.7406 1.7908 14.63 0.473539 14.594 0C13.5171 0.0624976 12.272 0.733145 11.5629 1.55763C10.7816 2.44221 10.3225 3.53592 10.4211 4.76905C11.5845 4.85798 12.647 4.25945 13.5219 3.23785Z" fill="#001840"/>
</svg>
