<svg width="20" height="20" viewBox="0 0 20 20" fill="none" xmlns="http://www.w3.org/2000/svg">
<g clip-path="url(#clip0_8283_11781)">
<path d="M4.38832 8.1375C4.77823 6.95787 5.53071 5.93151 6.53842 5.20483C7.54613 4.47815 8.7576 4.08828 9.99999 4.09083C11.4083 4.09083 12.6817 4.59083 13.6817 5.40917L16.5917 2.5C14.8183 0.954167 12.5458 0 9.99999 0C6.05832 0 2.66499 2.24833 1.03333 5.54167L4.38832 8.1375Z" fill="#EA4335"/>
<path d="M13.3666 15.0109C12.4583 15.5967 11.3049 15.9092 9.99993 15.9092C8.76249 15.9117 7.5556 15.525 6.55013 14.8036C5.54465 14.0823 4.79155 13.063 4.39743 11.89L1.03076 14.4458C1.8568 16.1178 3.13515 17.5245 4.72061 18.5063C6.30608 19.4881 8.1351 20.0056 9.99993 20C12.4441 20 14.7791 19.1309 16.5283 17.5L13.3674 15.0109H13.3666Z" fill="#34A853"/>
<path d="M16.5283 17.5001C18.3575 15.7934 19.545 13.2534 19.545 10.0001C19.545 9.40843 19.4542 8.7726 19.3183 8.18176H10V12.0459H15.3633C15.0992 13.3451 14.3883 14.3509 13.3675 15.0109L16.5283 17.5001Z" fill="#4A90E2"/>
<path d="M4.39747 11.8902C4.1936 11.281 4.09003 10.6427 4.09081 10.0002C4.09081 9.34854 4.19497 8.7227 4.38831 8.1377L1.03331 5.54187C0.346957 6.92744 -0.00685536 8.45397 -2.50249e-05 10.0002C-2.50249e-05 11.6002 0.370808 13.1085 1.03081 14.446L4.39747 11.8902Z" fill="#FBBC05"/>
</g>
<defs>
<clipPath id="clip0_8283_11781">
<rect width="20" height="20" fill="white"/>
</clipPath>
</defs>
</svg>
