<svg width="78" height="78" viewBox="0 0 78 78" fill="none" xmlns="http://www.w3.org/2000/svg">
<path d="M78 39C78 60.5391 60.5391 78 39 78C17.4609 78 0 60.5391 0 39C0 17.4609 17.4609 0 39 0C60.5391 0 78 17.4609 78 39Z" fill="#F9FAFD"/>
<path fill-rule="evenodd" clip-rule="evenodd" d="M38.8523 52.295C51.3352 52.295 61.4546 44.9535 61.4546 35.8972C61.4546 26.841 51.3352 19.4995 38.8523 19.4995C26.3694 19.4995 16.2501 26.841 16.2501 35.8972C16.2501 40.9071 19.3468 45.3922 24.2273 48.4V59.3859L31.6183 51.4371C33.8895 51.9934 36.3224 52.295 38.8523 52.295Z" fill="#FFDFAC"/>
<path d="M26.2954 34.5688H29.8409V38.1143H26.2954V34.5688Z" fill="#2C73E8"/>
<path d="M36.9318 34.5688H40.4772V38.1143H36.9318V34.5688Z" fill="#2C73E8"/>
<path d="M47.5681 34.5688H51.1136V38.1143H47.5681V34.5688Z" fill="#2C73E8"/>
</svg>
