<svg width="78" height="78" viewBox="0 0 78 78" fill="none" xmlns="http://www.w3.org/2000/svg">
<path d="M78 39C78 60.5391 60.5391 78 39 78C17.4609 78 0 60.5391 0 39C0 17.4609 17.4609 0 39 0C60.5391 0 78 17.4609 78 39Z" fill="#F9FAFD"/>
<path d="M49.8476 17.4312C45.0383 17.4312 40.9028 20.3882 39.1479 24.5885C37.3918 20.3882 33.2544 17.4312 28.4428 17.4312C22.0459 17.4312 16.8411 22.6603 16.8411 29.0882C16.8411 31.5688 17.6382 33.9602 19.1666 36.0306L38.446 60.229C38.6169 60.4428 38.8746 60.5675 39.1479 60.5675C39.4212 60.5675 39.6801 60.4422 39.8503 60.2278L59.5469 35.4197C59.5655 35.3957 59.5841 35.3704 59.6009 35.3444C60.8134 33.4458 61.4547 31.2821 61.4547 29.0882C61.4553 22.6603 56.2475 17.4312 49.8476 17.4312Z" fill="#FFB9C1"/>
<path d="M55.5 26.4551C55.5 28.6642 53.7091 30.4551 51.5 30.4551C49.2909 30.4551 47.5 28.6642 47.5 26.4551C47.5 24.2459 49.2909 22.4551 51.5 22.4551C53.7091 22.4551 55.5 24.2459 55.5 26.4551Z" fill="#2C73E8"/>
</svg>
