<svg width="78" height="78" viewBox="0 0 78 78" fill="none" xmlns="http://www.w3.org/2000/svg">
<path d="M78 39C78 60.5391 60.5391 78 39 78C17.4609 78 0 60.5391 0 39C0 17.4609 17.4609 0 39 0C60.5391 0 78 17.4609 78 39Z" fill="#F9FAFD"/>
<path d="M36.341 29.2495C34.2198 29.2495 32.5001 30.9691 32.5001 33.0904V47.2722C32.5001 49.3935 34.2198 51.1131 36.341 51.1131H47.5683L55.3978 58.795V51.1131H57.9092C60.0305 51.1131 61.7501 49.3935 61.7501 47.2722V33.0904C61.7501 30.9691 60.0305 29.2495 57.9092 29.2495H36.341Z" fill="#2C73E8"/>
<path d="M19.4999 19.7949C17.3786 19.7949 15.659 21.5146 15.659 23.6358V37.8176C15.659 39.9389 17.3786 41.6586 19.4999 41.6586H22.6022V49.1926L30.2812 41.6586H41.0681C43.1894 41.6586 44.909 39.9389 44.909 37.8176V23.6358C44.909 21.5146 43.1894 19.7949 41.0681 19.7949H19.4999Z" fill="#E7CEFE"/>
</svg>
