<svg width="78" height="78" viewBox="0 0 78 78" fill="none" xmlns="http://www.w3.org/2000/svg">
<path d="M78 39C78 60.5391 60.5391 78 39 78C17.4609 78 0 60.5391 0 39C0 17.4609 17.4609 0 39 0C60.5391 0 78 17.4609 78 39Z" fill="#F9FAFD"/>
<path d="M18.0226 16.2508C18.0226 14.9454 19.0808 13.8872 20.3862 13.8872H55.5453C56.8507 13.8872 57.9089 14.9454 57.9089 16.2508V61.7508C57.9089 63.0562 56.8507 64.1145 55.5453 64.1145H20.3862C19.0808 64.1145 18.0226 63.0562 18.0226 61.7508V16.2508Z" fill="#A5E3FF"/>
<path fill-rule="evenodd" clip-rule="evenodd" d="M26.5909 22.1593C26.5909 21.6698 26.9877 21.2729 27.4772 21.2729H48.4545C48.944 21.2729 49.3409 21.6698 49.3409 22.1593C49.3409 22.6488 48.944 23.0457 48.4545 23.0457H27.4772C26.9877 23.0457 26.5909 22.6488 26.5909 22.1593Z" fill="white"/>
<path fill-rule="evenodd" clip-rule="evenodd" d="M26.5909 29.5446C26.5909 29.055 26.9877 28.6582 27.4772 28.6582H48.4545C48.944 28.6582 49.3409 29.055 49.3409 29.5446C49.3409 30.0341 48.944 30.4309 48.4545 30.4309H27.4772C26.9877 30.4309 26.5909 30.0341 26.5909 29.5446Z" fill="white"/>
<path fill-rule="evenodd" clip-rule="evenodd" d="M26.5909 36.9328C26.5909 36.4432 26.9877 36.0464 27.4772 36.0464H46.3863C46.8759 36.0464 47.2727 36.4432 47.2727 36.9328C47.2727 37.4223 46.8759 37.8191 46.3863 37.8191H27.4772C26.9877 37.8191 26.5909 37.4223 26.5909 36.9328Z" fill="white"/>
<path fill-rule="evenodd" clip-rule="evenodd" d="M26.5909 44.3185C26.5909 43.829 26.9877 43.4321 27.4772 43.4321H46.3863C46.8759 43.4321 47.2727 43.829 47.2727 44.3185C47.2727 44.808 46.8759 45.2049 46.3863 45.2049H27.4772C26.9877 45.2049 26.5909 44.808 26.5909 44.3185Z" fill="white"/>
<path fill-rule="evenodd" clip-rule="evenodd" d="M26.5909 51.7042C26.5909 51.2147 26.9877 50.8179 27.4772 50.8179H37.5227C38.0122 50.8179 38.4091 51.2147 38.4091 51.7042C38.4091 52.1938 38.0122 52.5906 37.5227 52.5906H27.4772C26.9877 52.5906 26.5909 52.1938 26.5909 51.7042Z" fill="white"/>
<path d="M42.986 43.5381L61.3443 24.5004L65.992 28.9823L47.6337 48.0199L42.986 43.5381Z" fill="#2C73E8"/>
<path d="M43.091 43.3811L38.5312 52.4903L47.6642 47.9558L43.091 43.3811Z" fill="#FDE4BD"/>
<path d="M39.576 50.3996L38.5312 52.4883L40.6202 51.4438L39.576 50.3996Z" fill="#2C73E8"/>
</svg>
