<svg width="24" height="25" viewBox="0 0 24 25" fill="none" xmlns="http://www.w3.org/2000/svg">
<path d="M17.2493 15.5002C16.6879 15.503 16.1343 15.6318 15.6293 15.8771C15.1244 16.1225 14.681 16.4781 14.3318 16.9177L8.84928 13.4902C9.0491 12.8453 9.0491 12.155 8.84928 11.5102L14.3318 8.08265C14.8882 8.77169 15.6706 9.24154 16.5403 9.40896C17.41 9.57638 18.3109 9.43058 19.0834 8.99737C19.8559 8.56417 20.4502 7.87152 20.7609 7.04214C21.0716 6.21276 21.0787 5.30017 20.781 4.46603C20.4833 3.63189 19.8999 2.93005 19.1343 2.48483C18.3687 2.0396 17.4702 1.87974 16.5979 2.03356C15.7257 2.18737 14.9361 2.64493 14.369 3.32519C13.8018 4.00545 13.4937 4.8645 13.4993 5.75015C13.5028 6.08554 13.5533 6.41877 13.6493 6.74015L8.16678 10.1677C7.68277 9.55834 7.02119 9.11469 6.27375 8.8982C5.52631 8.68171 4.73003 8.7031 3.99529 8.95941C3.26056 9.21572 2.62375 9.69426 2.17315 10.3287C1.72255 10.9631 1.48047 11.722 1.48047 12.5002C1.48047 13.2783 1.72255 14.0372 2.17315 14.6716C2.62375 15.306 3.26056 15.7846 3.99529 16.0409C4.73003 16.2972 5.52631 16.3186 6.27375 16.1021C7.02119 15.8856 7.68277 15.442 8.16678 14.8327L13.6493 18.2602C13.5533 18.5815 13.5028 18.9148 13.4993 19.2502C13.4993 19.9918 13.7192 20.7169 14.1313 21.3335C14.5433 21.9502 15.129 22.4309 15.8142 22.7147C16.4994 22.9985 17.2534 23.0728 17.9809 22.9281C18.7083 22.7834 19.3765 22.4263 19.9009 21.9018C20.4254 21.3774 20.7825 20.7092 20.9272 19.9817C21.0719 19.2543 20.9977 18.5003 20.7138 17.8151C20.43 17.1299 19.9494 16.5442 19.3327 16.1321C18.716 15.7201 17.991 15.5002 17.2493 15.5002V15.5002ZM17.2493 3.50015C17.6943 3.50015 18.1293 3.63211 18.4993 3.87935C18.8693 4.12658 19.1577 4.47798 19.328 4.88912C19.4983 5.30025 19.5429 5.75265 19.4561 6.18911C19.3692 6.62556 19.1549 7.02648 18.8403 7.34114C18.5256 7.65581 18.1247 7.8701 17.6882 7.95692C17.2518 8.04374 16.7994 7.99918 16.3882 7.82888C15.9771 7.65859 15.6257 7.3702 15.3785 7.00019C15.1312 6.63018 14.9993 6.19516 14.9993 5.75015C14.9993 5.15342 15.2363 4.58112 15.6583 4.15916C16.0803 3.73721 16.6525 3.50015 17.2493 3.50015V3.50015ZM5.24928 14.7502C4.80428 14.7502 4.36926 14.6182 3.99925 14.371C3.62924 14.1237 3.34085 13.7723 3.17055 13.3612C3.00026 12.9501 2.9557 12.4977 3.04252 12.0612C3.12933 11.6247 3.34363 11.2238 3.65829 10.9092C3.97296 10.5945 4.37387 10.3802 4.81033 10.2934C5.24679 10.2066 5.69919 10.2511 6.11032 10.4214C6.52146 10.5917 6.87286 10.8801 7.12009 11.2501C7.36732 11.6201 7.49928 12.0551 7.49928 12.5002C7.49928 13.0969 7.26223 13.6692 6.84027 14.0911C6.41832 14.5131 5.84602 14.7502 5.24928 14.7502ZM17.2493 21.5002C16.8043 21.5002 16.3693 21.3682 15.9993 21.121C15.6292 20.8737 15.3409 20.5223 15.1706 20.1112C15.0003 19.7001 14.9557 19.2477 15.0425 18.8112C15.1293 18.3747 15.3436 17.9738 15.6583 17.6592C15.973 17.3445 16.3739 17.1302 16.8103 17.0434C17.2468 16.9566 17.6992 17.0011 18.1103 17.1714C18.5215 17.3417 18.8729 17.6301 19.1201 18.0001C19.3673 18.3701 19.4993 18.8051 19.4993 19.2502C19.4993 19.8469 19.2622 20.4192 18.8403 20.8411C18.4183 21.2631 17.846 21.5002 17.2493 21.5002V21.5002Z" fill="#001840"/>
</svg>
