<svg width="32" height="32" viewBox="0 0 32 32" fill="none" xmlns="http://www.w3.org/2000/svg">
<path d="M11 18L12.41 19.41L15 16.83V29H17V16.83L19.59 19.41L21 18L16 13L11 18Z" fill="#2C73E8"/>
<path d="M23.5018 21.9996H23.0018V19.9996H23.5018C24.6953 20.0473 25.8588 19.619 26.7365 18.8088C27.6142 17.9987 28.1341 16.873 28.1818 15.6796C28.2296 14.4861 27.8012 13.3225 26.9911 12.4449C26.1809 11.5672 25.0553 11.0473 23.8618 10.9996H23.0018L22.9018 10.1796C22.68 8.49602 21.8537 6.95051 20.5769 5.83095C19.3001 4.71139 17.6599 4.09412 15.9618 4.09412C14.2637 4.09412 12.6235 4.71139 11.3467 5.83095C10.0699 6.95051 9.24367 8.49602 9.02181 10.1796L9.00181 10.9996H8.14181C6.94834 11.0473 5.82271 11.5672 5.01255 12.4449C4.20239 13.3225 3.77407 14.4861 3.82181 15.6796C3.86955 16.873 4.38944 17.9987 5.26711 18.8088C6.14478 19.619 7.30834 20.0473 8.50181 19.9996H9.00181V21.9996H8.50181C6.89822 21.9894 5.35498 21.3868 4.1688 20.3077C2.98262 19.2285 2.23723 17.7489 2.07594 16.1534C1.91466 14.558 2.34886 12.9591 3.29506 11.6644C4.24127 10.3697 5.63269 9.47045 7.20181 9.13957C7.63352 7.12609 8.74265 5.32154 10.3441 4.02704C11.9456 2.73253 13.9426 2.02637 16.0018 2.02637C18.0611 2.02637 20.058 2.73253 21.6595 4.02704C23.261 5.32154 24.3701 7.12609 24.8018 9.13957C26.3709 9.47045 27.7624 10.3697 28.7086 11.6644C29.6548 12.9591 30.089 14.558 29.9277 16.1534C29.7664 17.7489 29.021 19.2285 27.8348 20.3077C26.6486 21.3868 25.1054 21.9894 23.5018 21.9996Z" fill="#2C73E8"/>
</svg>
